<svg width="50" height="50" viewBox="0 0 50 50" fill="none" xmlns="http://www.w3.org/2000/svg">
<circle cx="25" cy="25" r="25" fill="#FF5E00"/>
<path d="M26.6462 34.3537C26.5997 34.3073 26.5629 34.2521 26.5377 34.1914C26.5125 34.1307 26.4996 34.0657 26.4996 34C26.4996 33.9343 26.5125 33.8692 26.5377 33.8085C26.5629 33.7478 26.5997 33.6927 26.6462 33.6462L34.7925 25.5L14 25.5C13.8674 25.5 13.7402 25.4473 13.6464 25.3535C13.5527 25.2598 13.5 25.1326 13.5 25C13.5 24.8674 13.5527 24.7402 13.6464 24.6464C13.7402 24.5527 13.8674 24.5 14 24.5L34.7925 24.5L26.6462 16.3537C26.5998 16.3073 26.5629 16.2521 26.5378 16.1914C26.5126 16.1307 26.4997 16.0657 26.4997 16C26.4997 15.9343 26.5126 15.8692 26.5378 15.8085C26.5629 15.7478 26.5998 15.6927 26.6462 15.6462C26.6927 15.5998 26.7478 15.5629 26.8085 15.5378C26.8692 15.5126 26.9343 15.4997 27 15.4997C27.0657 15.4997 27.1307 15.5126 27.1914 15.5378C27.2521 15.5629 27.3073 15.5998 27.3537 15.6462L36.3537 24.6462C36.4002 24.6927 36.4371 24.7478 36.4623 24.8085C36.4874 24.8692 36.5004 24.9343 36.5004 25C36.5004 25.0657 36.4874 25.1307 36.4623 25.1914C36.4371 25.2521 36.4002 25.3073 36.3537 25.3537L27.3537 34.3537C27.3073 34.4002 27.2521 34.4371 27.1914 34.4623C27.1307 34.4874 27.0657 34.5004 27 34.5004C26.9343 34.5004 26.8692 34.4874 26.8085 34.4623C26.7478 34.4371 26.6927 34.4002 26.6462 34.3537Z" fill="white"/>
</svg>
